<svg width="54" height="55" viewBox="0 0 54 55" fill="none" xmlns="http://www.w3.org/2000/svg">
<path d="M52.8228 25.0626H27.9874V32.4563H45.6186C44.7249 42.7751 36.1395 47.1897 28.0145 47.1897C17.6416 47.1897 8.54155 39.0105 8.54155 27.5001C8.54155 16.3959 17.2082 7.8105 28.0416 7.8105C36.4103 7.8105 41.3124 13.1459 41.3124 13.1459L46.4582 7.78341C46.4582 7.78341 39.8499 0.416748 27.7707 0.416748C12.3874 0.416748 0.497803 13.4167 0.497803 27.5001C0.497803 41.1772 11.6832 54.5834 28.177 54.5834C42.6666 54.5834 53.229 44.6438 53.229 29.9647C53.229 26.8501 52.8228 25.0626 52.8228 25.0626Z" fill="white"/>
</svg>
