<svg width="53" height="62" viewBox="0 0 53 62" fill="none" xmlns="http://www.w3.org/2000/svg">
<path d="M45.1713 45.1087L30.8104 59.4737C30.2445 60.0399 29.5725 60.4891 28.833 60.7956C28.0934 61.1021 27.3006 61.2599 26.5001 61.2599C25.6995 61.2599 24.9068 61.1021 24.1672 60.7956C23.4276 60.4891 22.7557 60.0399 22.1898 59.4737L7.82883 45.1087C5.37662 42.6567 3.43137 39.7458 2.10414 36.5421C0.776908 33.3383 0.0936945 29.9046 0.0935059 26.4368C0.0933173 22.9691 0.776156 19.5352 2.10304 16.3314C3.42992 13.1275 5.37485 10.2163 7.8268 7.76413C10.2787 5.31192 13.1897 3.36667 16.3934 2.03944C19.5971 0.71221 23.0309 0.0289972 26.4986 0.0288086C29.9664 0.02862 33.4002 0.711459 36.6041 2.03834C39.808 3.36522 42.7191 5.31016 45.1713 7.7621C47.6237 10.2142 49.5691 13.1254 50.8964 16.3293C52.2236 19.5333 52.9068 22.9674 52.9068 26.4354C52.9068 29.9034 52.2236 33.3374 50.8964 36.5414C49.5691 39.7454 47.6237 42.6566 45.1713 45.1087ZM40.8651 12.0724C37.0552 8.26258 31.888 6.11817 26.5001 6.11817C21.1122 6.11817 15.9449 8.25851 12.1351 12.0683C8.32524 15.8782 6.1849 21.0454 6.1849 26.4333C6.1849 31.8213 8.32524 36.9885 12.1351 40.7983L26.5001 55.1593L40.8651 40.8024C42.7518 38.9162 44.2485 36.6767 45.2697 34.2119C46.2908 31.7471 46.8164 29.1053 46.8164 26.4374C46.8164 23.7695 46.2908 21.1277 45.2697 18.6629C44.2485 16.1981 42.7518 13.9587 40.8651 12.0724ZM26.5001 34.5624C25.4181 34.5869 24.3421 34.3949 23.3353 33.9978C22.3285 33.6007 21.4112 33.0065 20.6372 32.25C19.8632 31.4935 19.2482 30.59 18.8282 29.5926C18.4082 28.5951 18.1917 27.5238 18.1914 26.4415C18.1911 25.3592 18.4071 24.2878 18.8266 23.2901C19.2461 22.2925 19.8607 21.3887 20.6343 20.6318C21.4079 19.8749 22.3249 19.2802 23.3315 18.8826C24.3381 18.485 25.414 18.2925 26.496 18.3165C28.6189 18.3634 30.6391 19.2396 32.1241 20.7574C33.6091 22.2752 34.4409 24.314 34.4414 26.4375C34.4419 28.5609 33.6112 30.6001 32.1269 32.1187C30.6427 33.6372 28.623 34.5144 26.5001 34.5624Z" fill="white"/>
</svg>
