<svg width="33" height="57" viewBox="0 0 33 57" fill="none" xmlns="http://www.w3.org/2000/svg">
<path d="M12.4375 44.75C11.8988 44.75 11.3821 44.964 11.0012 45.3449C10.6203 45.7259 10.4062 46.2425 10.4062 46.7812C10.4062 47.32 10.6203 47.8366 11.0012 48.2176C11.3821 48.5985 11.8988 48.8125 12.4375 48.8125H20.5625C21.1012 48.8125 21.6179 48.5985 21.9988 48.2176C22.3797 47.8366 22.5938 47.32 22.5938 46.7812C22.5938 46.2425 22.3797 45.7259 21.9988 45.3449C21.6179 44.964 21.1012 44.75 20.5625 44.75H12.4375ZM7.35938 0.0625C5.47385 0.0625 3.66555 0.811521 2.33229 2.14479C0.999022 3.47805 0.25 5.28635 0.25 7.17188V49.8281C0.25 53.7525 3.435 56.9375 7.35938 56.9375H25.6406C27.5261 56.9375 29.3344 56.1885 30.6677 54.8552C32.001 53.5219 32.75 51.7136 32.75 49.8281V7.17188C32.75 5.28635 32.001 3.47805 30.6677 2.14479C29.3344 0.811521 27.5261 0.0625 25.6406 0.0625H7.35938ZM4.3125 7.17188C4.3125 6.36379 4.63351 5.58881 5.20491 5.01741C5.77631 4.44601 6.55129 4.125 7.35938 4.125H25.6406C26.4487 4.125 27.2237 4.44601 27.7951 5.01741C28.3665 5.58881 28.6875 6.36379 28.6875 7.17188V49.8281C28.6875 50.6362 28.3665 51.4112 27.7951 51.9826C27.2237 52.554 26.4487 52.875 25.6406 52.875H7.35938C6.55129 52.875 5.77631 52.554 5.20491 51.9826C4.63351 51.4112 4.3125 50.6362 4.3125 49.8281V7.17188Z" fill="white"/>
</svg>
